<?xml version="1.0" standalone="no"?>
<!DOCTYPE svg PUBLIC "-//W3C//DTD SVG 20010904//EN"
 "http://www.w3.org/TR/2001/REC-SVG-20010904/DTD/svg10.dtd">
<svg version="1.0" xmlns="http://www.w3.org/2000/svg"
 width="120.000000pt" height="120.000000pt" viewBox="0 0 120.000000 120.000000"
 preserveAspectRatio="xMidYMid meet">
<metadata>
Created by potrace 1.11, written by Peter Selinger 2001-2013
</metadata>
<g transform="translate(0.000000,120.000000) scale(0.100000,-0.100000)"
fill="#000000" stroke="none">
<path d="M548 1174 c-59 -32 -75 -115 -33 -170 31 -40 31 -61 2 -88 -19 -18
-35 -21 -102 -21 -53 0 -80 4 -83 13 -6 18 -58 15 -77 -4 -18 -18 -13 -63 8
-76 18 -11 52 -9 64 3 7 7 45 13 85 13 58 2 78 -2 100 -17 l27 -20 -4 -241
c-2 -132 -8 -254 -12 -270 -23 -78 -142 -94 -258 -35 -52 27 -82 54 -116 108
-32 50 -38 84 -14 75 20 -8 19 2 -6 72 -11 32 -22 67 -24 78 -6 25 -14 32 -19
15 -2 -8 -16 -46 -29 -86 -26 -73 -26 -86 -1 -76 8 3 15 -1 15 -11 1 -9 2 -19
3 -23 1 -5 6 -24 10 -43 22 -96 101 -197 197 -253 46 -27 165 -62 229 -68 19
-2 49 -11 66 -20 27 -15 33 -15 46 -3 8 8 52 21 99 29 46 8 89 16 94 18 6 2
23 7 39 12 44 12 139 79 180 127 57 66 90 143 95 221 1 14 6 17 21 12 25 -8
25 -11 -4 74 -13 39 -22 71 -19 71 3 0 0 7 -8 16 -11 14 -14 11 -24 -23 -46
-148 -45 -145 -31 -140 25 10 25 -5 1 -53 -49 -97 -157 -162 -270 -163 -63 -1
-100 23 -113 73 -4 19 -10 93 -12 165 -7 344 -7 355 15 355 7 0 15 5 17 12 5
15 156 14 171 -1 18 -18 65 -13 80 10 32 46 -17 94 -70 69 -38 -18 -173 -21
-180 -3 -3 7 -11 13 -19 13 -8 0 -14 4 -14 9 0 5 -3 16 -6 24 -3 8 2 22 11 30
59 59 52 151 -15 190 -34 21 -76 21 -112 1z m107 -71 c9 -14 14 -28 10 -31 -4
-4 -33 -7 -66 -8 -49 -1 -59 2 -59 16 0 18 25 44 50 52 25 8 48 -3 65 -29z"/>
</g>
</svg>
